<?xml version="1.0" standalone="no"?>
<!DOCTYPE svg PUBLIC "-//W3C//DTD SVG 20010904//EN"
 "http://www.w3.org/TR/2001/REC-SVG-20010904/DTD/svg10.dtd">
<svg version="1.0" xmlns="http://www.w3.org/2000/svg"
 width="408.000000pt" height="279.000000pt" viewBox="0 0 408.000000 279.000000"
 preserveAspectRatio="xMidYMid meet">
<metadata>
Created by potrace 1.10, written by Peter Selinger 2001-2011
</metadata>
<g transform="translate(0.000000,279.000000) scale(0.050000,-0.050000)"
fill="#FFFCD6" stroke="none">
<path d="M3960 5509 c-303 -87 -395 -113 -440 -122 -27 -6 -88 -28 -135 -49
-46 -21 -98 -38 -115 -38 -17 0 -51 -12 -76 -28 -24 -15 -143 -38 -264 -51
-609 -66 -1473 -281 -1815 -452 -353 -176 -401 -250 -392 -601 l7 -251 86 -80
85 -80 7 -176 7 -177 -76 -57 c-227 -169 -225 -782 3 -842 72 -19 55 -341 -22
-415 -359 -344 168 -685 1440 -929 1747 -335 4465 -54 5098 527 52 47 64 53
53 22 -9 -22 -20 -58 -25 -80 -19 -81 -75 -168 -115 -180 -39 -12 -39 -13 -4
-27 42 -17 -8 -62 -102 -91 -25 -8 -45 -28 -45 -43 0 -35 -34 -38 -45 -4 -6
18 -18 15 -44 -11 -62 -62 -170 -107 -268 -113 -16 0 -22 -14 -16 -31 7 -17 3
-30 -8 -30 -10 0 -19 9 -19 20 0 11 -22 20 -49 20 -33 0 -46 -9 -40 -26 8 -20
-19 -24 -122 -18 -82 6 -141 0 -155 -14 -16 -16 -6 -22 40 -22 52 0 61 -6 52
-40 -12 -45 -38 -53 -51 -16 -6 19 -26 19 -88 -2 -58 -19 -99 -21 -151 -6 -64
17 -74 15 -82 -19 -6 -21 -18 -37 -27 -35 -69 12 -213 -5 -187 -22 21 -14 0
-19 -74 -20 -58 0 -202 -13 -320 -30 -119 -16 -285 -32 -369 -35 -84 -3 -149
-11 -145 -18 8 -13 -13 -15 -172 -14 -49 0 -103 0 -120 -1 -440 -14 -1140 -18
-1140 -7 0 9 -79 18 -175 20 -187 4 -668 51 -889 87 -74 12 -153 15 -175 8
-40 -12 -61 20 -21 33 10 4 -36 8 -103 9 -67 2 -127 12 -134 23 -22 33 -142
51 -173 25 -20 -16 -38 -17 -64 -2 -33 19 -32 21 9 21 25 1 45 11 45 24 0 16
-38 19 -125 12 -69 -6 -109 -6 -90 -1 69 18 33 46 -60 47 -71 1 -85 6 -55 19
30 13 16 18 -55 19 -52 0 -95 10 -95 20 0 11 -31 25 -69 32 -37 7 -73 26 -79
42 -7 16 -21 24 -32 17 -11 -7 -20 -2 -20 11 0 17 -10 16 -34 -4 -18 -15 -28
-18 -21 -6 12 20 -66 69 -150 96 -19 7 -35 26 -35 42 0 18 -18 31 -41 31 -22
0 -39 11 -38 25 5 41 -24 115 -41 105 -9 -5 -22 22 -29 61 -7 38 -22 65 -32
58 -33 -20 -22 -185 16 -233 59 -76 190 -196 244 -223 28 -14 69 -35 91 -46
136 -70 224 -107 254 -107 18 0 39 -9 46 -20 7 -11 39 -20 71 -20 33 0 59 -8
59 -18 0 -10 34 -23 75 -29 175 -27 226 -38 236 -55 6 -10 42 -18 79 -18 37 0
73 -8 78 -17 6 -10 59 -23 117 -30 58 -7 155 -22 215 -33 113 -22 280 -41 720
-84 680 -65 2176 -20 2780 85 72 12 175 27 230 32 55 6 109 19 119 29 10 10
48 18 84 18 35 0 70 9 77 20 7 11 43 20 80 20 37 0 73 9 80 20 7 11 38 20 70
20 32 0 63 9 70 20 7 11 34 20 61 20 27 0 65 8 84 18 34 17 98 44 190 79 106
42 235 111 235 126 0 9 12 17 26 17 14 0 38 18 54 40 16 22 40 40 54 40 14 0
26 12 26 26 0 15 19 47 42 72 36 38 41 66 37 198 -6 215 -3 244 29 244 15 0
33 16 40 35 7 19 26 58 42 85 21 36 29 115 30 291 0 262 -16 307 -147 410 -96
76 -71 398 37 479 112 84 129 132 137 383 8 263 -8 319 -117 414 l-75 66 10
177 c20 352 -174 519 -823 710 -137 40 -272 84 -300 99 -274 140 -816 261
-1256 281 -110 5 -213 13 -228 18 -15 5 -83 28 -149 51 -67 22 -137 41 -155
41 -19 0 -34 9 -34 20 0 11 -17 20 -37 20 -20 0 -89 18 -153 40 -131 45 -199
47 -330 9z m208 -80 c13 -18 61 -37 108 -43 46 -6 84 -20 84 -31 0 -12 26 -15
60 -8 33 7 60 4 60 -6 0 -40 242 -74 430 -62 170 12 210 -39 210 -266 0 -191
5 -187 -380 -328 -654 -241 -474 -251 -1425 77 l-195 67 1 101 c1 55 8 139 15
186 l14 86 70 -53 c84 -64 227 -128 287 -130 41 -2 42 -2 3 -18 -28 -12 -12
-16 55 -16 53 1 116 -8 140 -20 86 -42 243 -85 314 -87 65 -2 67 -3 21 -18
-27 -9 -36 -17 -20 -18 17 -2 52 -8 78 -15 34 -9 44 -6 34 10 -8 13 -5 23 7
23 11 0 21 -7 21 -15 0 -8 38 -16 85 -18 54 -1 71 3 46 12 -48 18 -38 24 161
89 89 29 177 47 195 40 18 -7 33 -3 33 9 0 12 34 27 75 35 41 7 84 20 95 28
11 8 47 21 80 30 33 8 49 19 36 24 -33 12 12 85 54 88 19 1 21 5 6 11 -25 10
-375 -93 -666 -197 -207 -73 -203 -74 -506 16 -719 212 -805 253 -529 251 56
0 112 5 124 13 11 8 48 15 81 15 184 4 241 13 190 29 -43 14 -44 16 -9 18 23
1 50 11 61 22 11 11 60 26 109 32 49 7 100 21 114 33 14 11 25 12 25 3 0 -9
11 -5 24 8 34 34 97 30 124 -7z m1322 -350 c66 -11 164 -25 217 -30 54 -6 111
-24 128 -41 17 -17 47 -27 67 -22 20 6 39 4 42 -3 11 -23 404 -168 462 -171
30 -1 63 -13 71 -28 9 -14 46 -29 82 -33 104 -14 114 -56 12 -56 -28 0 -45 -8
-39 -17 5 -10 37 -18 69 -18 33 0 59 8 59 18 0 18 99 24 127 7 10 -5 6 -17 -8
-25 -17 -11 -12 -22 20 -39 79 -42 138 -105 127 -133 -6 -17 3 -28 22 -28 27
0 41 -33 35 -83 -1 -7 15 -9 35 -3 46 12 80 -90 38 -117 -14 -9 -17 -17 -5
-17 20 0 26 -23 35 -138 2 -32 10 -54 18 -50 7 5 19 0 26 -12 7 -11 -2 -20
-20 -20 -22 0 -29 -12 -22 -35 5 -19 21 -78 33 -130 13 -52 31 -95 39 -95 31
0 42 -72 29 -196 -10 -90 -21 -124 -39 -117 -17 7 -22 -3 -16 -27 29 -111
-155 -193 -311 -138 -86 30 -126 12 -49 -23 35 -15 58 -36 52 -46 -7 -11 12
-13 46 -6 38 9 48 7 28 -5 -41 -24 -220 -40 -220 -19 0 9 9 17 20 17 11 0 20
16 20 35 -1 30 -3 31 -20 5 -11 -16 -20 -21 -20 -10 -1 11 -14 3 -31 -19 -21
-28 -29 -30 -29 -10 -1 24 -4 24 -20 -1 -14 -22 -19 -23 -20 -4 0 15 -10 20
-23 12 -14 -9 -18 -5 -9 8 8 14 -14 34 -57 52 -40 17 -75 42 -79 56 -5 14 -15
44 -23 66 -9 22 -13 51 -11 65 2 14 -6 25 -18 25 -12 0 -17 9 -10 20 7 12 22
15 34 8 12 -8 16 1 9 24 -6 21 -17 65 -25 98 -8 33 -31 72 -52 86 -20 15 -32
34 -27 43 6 9 -3 28 -19 41 -17 14 -30 35 -30 47 0 45 -172 206 -270 254 -55
27 -107 58 -115 69 -8 12 -15 8 -15 -10 -1 -27 -3 -27 -20 0 -17 26 -19 25
-20 -5 0 -19 -11 -35 -25 -36 -14 0 -9 -9 10 -21 70 -40 31 -52 -170 -53 -134
-1 -235 -13 -292 -33 -48 -18 -95 -27 -105 -21 -33 21 -62 -12 -37 -43 19 -22
17 -28 -9 -28 -17 0 -32 11 -32 25 0 14 -12 3 -27 -25 -17 -34 -40 -48 -69
-45 -28 3 -44 -6 -44 -25 0 -17 -9 -30 -20 -30 -11 0 -20 -14 -20 -31 0 -48
-51 -89 -109 -89 -28 0 -51 4 -51 8 0 34 30 72 57 72 26 1 27 4 7 17 -22 14
-21 23 5 49 20 20 24 36 10 44 -31 20 -79 -29 -79 -81 0 -63 -20 -109 -47
-110 -13 0 -45 -31 -73 -70 -27 -38 -70 -75 -95 -81 -25 -7 -45 -20 -45 -30 0
-10 -12 -18 -28 -18 -54 0 -74 -51 -21 -56 27 -2 49 5 49 16 0 11 7 19 15 18
36 -6 65 3 60 20 -3 9 36 54 86 98 85 75 131 86 130 31 -1 -33 -31 -59 -31
-27 0 18 -12 15 -40 -10 -29 -26 -34 -41 -18 -51 17 -10 11 -29 -19 -61 -24
-25 -43 -52 -43 -60 0 -9 -18 -21 -40 -28 -22 -7 -40 -25 -40 -39 0 -76 -255
-160 -470 -156 -205 4 -278 29 -371 127 -64 67 -74 71 -96 41 -20 -27 -20 -25
-3 12 19 41 -29 125 -71 125 -7 0 -24 13 -40 28 -24 24 -16 27 55 20 81 -8 81
-7 46 32 -29 32 -42 35 -66 15 -25 -21 -28 -18 -17 16 9 27 -3 57 -37 93 -28
30 -50 64 -50 75 0 30 -39 26 -52 -6 -14 -37 -86 -20 -158 38 l-60 49 70 2 70
3 -60 14 c-33 7 -73 12 -90 10 -16 -2 -34 2 -40 9 -87 106 -545 164 -609 77
-29 -40 -84 -46 -96 -11 -5 15 -23 8 -51 -20 -24 -24 -44 -38 -44 -32 0 7 -13
2 -30 -12 -25 -20 -30 -19 -30 9 0 18 -8 28 -19 22 -10 -7 -15 -29 -11 -49 5
-27 -7 -41 -42 -47 -40 -8 -48 -1 -48 38 0 28 12 47 30 47 17 0 30 16 30 35 0
34 18 45 185 113 41 16 75 42 75 56 0 16 -6 18 -15 6 -8 -11 -42 -22 -74 -23
-32 -2 -69 -18 -82 -35 -13 -18 -34 -32 -47 -32 -22 0 -44 -15 -112 -76 -16
-14 -26 -50 -22 -80 4 -30 3 -43 -2 -30 -11 30 -66 10 -66 -24 0 -14 -21 -73
-47 -133 -30 -67 -52 -168 -60 -269 -13 -152 -58 -330 -97 -377 -9 -12 -48
-56 -86 -100 -38 -43 -64 -83 -57 -90 7 -6 16 0 21 14 5 14 26 25 46 25 21 0
43 18 50 40 7 22 21 35 31 29 29 -18 22 -109 -8 -109 -17 0 -23 -19 -18 -57
11 -75 -78 -152 -155 -133 -27 7 -66 14 -85 16 -39 3 -46 25 -15 44 37 23 20
50 -31 50 -29 0 -46 9 -39 20 7 11 1 20 -14 20 -19 1 -18 6 4 20 26 16 25 19
-6 20 -110 1 -225 162 -216 304 7 123 -14 216 -49 216 -23 0 -26 25 -16 123 8
75 6 119 -5 112 -12 -7 -15 33 -9 102 6 62 4 158 -5 213 -40 252 -39 393 5
424 23 15 41 44 40 62 0 30 -4 29 -30 -5 -34 -46 -38 -16 -7 63 21 52 24 53
39 16 11 -27 17 -30 18 -10 0 17 29 64 62 105 34 41 56 84 49 95 -7 11 -3 20
7 20 11 0 24 -16 29 -35 8 -29 10 -28 12 6 2 40 100 98 160 94 16 -1 52 8 80
19 29 11 78 24 110 28 33 5 77 24 99 43 22 19 33 23 24 8 -12 -20 -6 -24 21
-16 111 34 454 115 535 126 51 7 93 20 93 30 0 9 71 17 158 17 107 0 162 8
170 25 10 20 14 20 24 0 6 -14 29 -25 50 -25 40 0 53 -32 17 -44 -32 -10 64
-214 107 -228 21 -7 32 -24 26 -40 -6 -15 -3 -28 7 -28 10 0 34 -5 54 -12 31
-10 32 -8 7 10 -16 12 -20 22 -9 22 12 0 39 -17 61 -37 22 -20 89 -53 149 -73
60 -19 118 -42 129 -50 38 -29 116 -46 101 -22 -8 13 3 22 28 22 22 0 41 -9
41 -20 0 -39 82 -101 135 -101 163 -2 205 -9 197 -31 -6 -17 15 -21 74 -14 63
7 77 4 54 -12 -24 -17 -19 -21 25 -22 30 0 55 8 55 18 0 25 178 71 256 66 42
-2 69 7 77 26 6 17 23 30 37 30 15 0 30 10 34 23 5 13 21 26 37 28 137 23 465
136 448 154 -6 6 22 43 63 83 68 66 75 83 77 183 2 154 23 165 241 128z m1430
-359 c17 -11 22 -20 12 -20 -35 0 51 -77 114 -101 105 -41 229 -189 221 -265
-16 -155 -22 -195 -30 -204 -11 -11 -97 143 -97 172 0 11 -25 57 -55 103 -53
82 -77 113 -150 199 -19 23 -29 49 -24 58 6 9 -12 23 -40 30 -28 7 -51 20 -51
30 0 24 62 22 100 -2z m-5620 -23 c0 -7 -31 -59 -68 -114 -70 -104 -132 -316
-132 -451 0 -38 -8 -75 -18 -81 -21 -12 -82 41 -82 70 0 11 -13 19 -29 19 -17
0 -25 12 -19 28 6 15 1 34 -11 41 -11 7 -21 49 -21 92 0 49 -9 80 -25 81 -19
1 -19 4 -1 11 13 5 19 21 14 35 -5 14 14 36 43 49 29 13 85 60 125 104 39 44
81 77 93 72 12 -4 32 4 46 18 19 20 19 28 -1 35 -13 5 1 8 31 6 30 -1 55 -8
55 -15z m-287 -680 l87 -39 3 -154 c2 -85 4 -178 6 -208 1 -29 -5 -49 -13 -43
-9 5 -16 22 -16 37 0 15 -26 43 -58 62 -63 37 -119 132 -86 143 11 4 0 28 -24
54 -54 59 -110 172 -144 291 -13 46 -7 44 72 -27 47 -43 124 -95 173 -116z
m6377 128 c-34 -83 -35 -111 -3 -129 48 -26 41 -60 -36 -174 -54 -81 -60 -97
-27 -80 30 16 37 16 27 0 -17 -28 31 -78 64 -67 27 9 32 -14 13 -62 -6 -17
-23 -26 -38 -20 -17 6 -31 -12 -40 -52 -7 -33 -21 -61 -32 -61 -10 0 -18 -13
-18 -30 0 -16 -11 -30 -25 -30 -19 0 -25 60 -25 235 0 129 -7 272 -15 317 -14
78 -11 84 60 135 87 62 115 67 95 18z m-1395 -96 c24 -13 38 -29 31 -37 -8 -7
6 -19 30 -25 50 -13 60 -47 14 -47 -16 0 -30 9 -30 20 0 11 -25 20 -56 20 -64
0 -104 32 -104 83 0 37 21 35 115 -14z m-151 -129 c105 -40 236 -137 236 -175
0 -11 13 -31 28 -43 15 -13 34 -47 41 -76 26 -104 134 -309 202 -384 79 -87
81 -93 38 -110 -17 -6 -26 -4 -21 5 6 10 -14 17 -44 18 -89 1 -153 11 -177 29
-14 10 -34 6 -50 -10 -15 -15 -70 -33 -122 -40 -52 -7 -119 -19 -148 -27 -35
-8 -49 -6 -40 8 7 12 2 26 -12 31 -58 20 13 39 145 38 106 -1 145 5 153 27 6
16 33 29 60 29 28 0 44 9 37 20 -7 11 8 21 34 22 25 0 34 6 20 12 -20 7 -20
16 -2 38 29 35 -12 37 -164 7 -255 -51 -710 -110 -988 -129 -296 -19 -386 -33
-340 -51 34 -14 31 -17 -20 -20 -59 -3 -59 -3 -10 -19 l50 -16 -50 -4 -50 -4
50 -14 c53 -15 364 -9 525 11 56 7 95 4 95 -7 0 -22 -131 -35 -310 -31 -83 2
-108 -3 -80 -15 27 -11 -24 -18 -151 -19 -110 0 -200 -10 -213 -23 -27 -27
-782 -17 -826 11 -16 11 -52 17 -80 14 -40 -4 -44 -1 -20 16 26 18 25 20 -5
21 -19 0 -35 14 -35 30 0 36 23 39 56 6 31 -31 30 5 -2 46 -18 25 -79 35 -264
46 -333 19 -866 71 -950 92 -112 28 -320 41 -320 19 0 -10 9 -19 20 -19 11 0
20 -13 20 -28 0 -18 16 -25 45 -20 34 6 30 1 -15 -21 -33 -16 -47 -30 -32 -30
22 -1 21 -9 -6 -39 -53 -59 0 -75 458 -139 1161 -163 2430 -150 3540 37 236
40 260 46 273 65 7 12 64 -4 140 -38 275 -124 567 -21 640 226 16 56 37 87 58
87 17 0 92 41 166 90 162 109 158 109 110 9 -21 -44 -33 -89 -27 -99 6 -10
-14 -32 -44 -48 -31 -17 -48 -31 -37 -31 10 -1 2 -13 -19 -28 -20 -15 -40 -46
-43 -69 -13 -83 -17 -93 -57 -126 -519 -425 -3292 -676 -4640 -419 -55 10
-149 25 -210 32 -60 7 -164 25 -230 41 -162 37 -174 36 -166 -17 4 -30 22 -47
56 -52 27 -4 60 -22 72 -40 18 -25 60 -35 161 -39 164 -7 207 -18 207 -53 0
-21 60 -27 270 -28 149 -1 278 -5 286 -11 46 -28 670 -55 687 -29 14 22 20 22
36 -3 16 -24 71 -30 295 -29 152 1 220 -1 151 -5 -201 -12 -143 -44 75 -41
110 1 206 -4 213 -11 8 -8 -265 -12 -605 -11 -340 2 -580 7 -533 12 47 4 85
15 85 25 0 9 16 20 35 24 19 4 -50 4 -155 -1 -104 -4 -193 -16 -197 -25 -3
-10 -84 -17 -180 -15 -144 3 -158 5 -83 17 63 10 22 14 -139 15 -149 0 -232 9
-237 23 -4 13 -66 22 -157 22 -82 0 -169 11 -193 24 -26 14 -148 25 -297 27
-256 5 -427 39 -499 102 -17 15 -42 27 -56 27 -13 0 -46 24 -73 53 -27 29 -49
41 -49 27 0 -15 -22 0 -50 32 -27 32 -50 49 -51 38 0 -11 -9 -5 -20 13 -12 21
-34 29 -59 23 -23 -6 -40 -1 -40 13 0 13 -8 18 -18 12 -24 -15 -69 42 -53 68
8 12 4 21 -8 21 -11 0 -21 26 -21 58 0 32 -11 63 -25 68 -19 7 -16 18 8 44 36
38 86 22 69 -22 -12 -32 19 -38 38 -8 7 11 23 20 36 20 14 0 12 -8 -6 -19 -22
-15 -24 -25 -7 -42 28 -28 74 -6 54 25 -8 13 -4 16 10 8 13 -8 24 -34 24 -58
2 -43 2 -43 20 3 17 42 8 57 -71 128 -50 44 -105 106 -122 138 -30 59 -21 147
13 126 20 -12 10 118 -12 153 -7 12 33 -12 89 -52 56 -41 102 -89 102 -108 0
-408 343 -880 612 -842 214 31 278 147 316 570 23 248 57 383 121 482 27 41
33 41 165 16 242 -48 986 -114 986 -89 0 21 -81 63 -99 51 -10 -6 -24 -2 -31
10 -7 11 -30 20 -51 20 -22 0 -39 9 -39 20 0 11 -7 19 -15 17 -8 -2 -41 4 -72
12 -37 11 -62 8 -71 -6 -7 -12 -33 -16 -57 -10 -25 6 -39 20 -33 30 7 11 -26
17 -75 16 -48 -2 -172 -2 -276 0 -122 3 -192 -3 -197 -17 -9 -26 -84 -30 -84
-4 0 86 276 222 483 237 287 20 458 -82 674 -404 107 -159 203 -259 285 -295
32 -14 58 -33 58 -41 0 -8 17 -15 39 -15 21 0 44 -8 50 -18 46 -75 683 -44
751 37 6 6 34 22 63 35 102 45 198 152 279 312 78 156 234 333 293 334 14 0
25 8 25 17 0 75 439 105 604 43z m-294 -840 c-7 -11 -43 -20 -81 -20 -38 0
-69 9 -69 20 0 11 37 20 81 20 49 0 76 -8 69 -20z m-4668 -45 c-1 -8 -2 -40
-2 -70 -1 -43 -5 -48 -20 -25 -26 41 -25 125 2 116 11 -4 20 -14 20 -21z m120
-321 c1263 -718 5320 -627 6273 140 51 42 80 55 72 35 -23 -59 -18 -138 10
-160 39 -31 -12 -141 -102 -223 -736 -662 -4240 -831 -5865 -282 -260 88 -430
174 -430 219 0 20 -18 55 -40 77 -22 22 -40 54 -40 70 0 17 -8 30 -17 30 -18
0 -72 101 -66 125 1 8 -5 15 -15 15 -10 0 -23 22 -30 48 -6 27 -18 65 -26 85
-8 22 23 6 85 -45 55 -45 140 -105 191 -134z m5285 -96 c44 -2 -117 -55 -167
-54 -41 0 -43 3 -10 11 40 10 40 10 0 28 -26 11 -9 13 50 6 70 -9 83 -6 60 12
-25 19 -24 21 7 11 20 -7 47 -13 60 -14z m-676 -139 c25 -41 16 -43 -391 -79
-293 -25 -446 -26 -431 -1 8 12 -54 22 -153 26 -139 6 -125 8 84 12 162 4 236
12 210 23 -37 16 -37 17 -3 19 21 0 41 -16 47 -39 11 -41 46 -56 46 -20 0 12
22 15 53 7 41 -10 51 -6 43 15 -9 23 19 27 156 22 110 -5 168 0 168 15 0 27
154 28 171 0z m1732 -127 c2 -12 4 -31 6 -42 1 -11 9 -31 18 -45 10 -17 3 -25
-22 -25 -21 0 -55 -16 -77 -37 -21 -20 -52 -37 -69 -37 -16 -1 -45 -8 -64 -16
-22 -9 -35 -5 -35 10 0 13 -26 -4 -59 -38 -33 -36 -63 -54 -71 -43 -7 12 -29
21 -49 21 -20 0 -42 14 -49 32 -16 42 -16 44 13 43 117 -5 155 7 155 46 0 23
9 36 20 29 11 -7 20 -2 20 11 0 14 17 19 39 14 25 -7 35 -2 28 15 -5 14 5 30
22 37 22 8 31 0 31 -29 0 -22 9 -35 20 -28 12 7 16 20 10 30 -14 23 39 73 78
73 18 0 33 -9 35 -21z m-6403 -102 c0 13 6 13 15 -1 183 -255 1115 -523 2155
-620 1831 -171 3860 112 4389 613 43 41 47 42 33 7 -9 -21 -18 -59 -21 -82 -3
-24 -34 -80 -69 -124 -37 -47 -55 -85 -43 -93 12 -7 21 -23 21 -36 0 -14 -8
-12 -20 6 -19 29 -32 -10 -22 -66 5 -29 -84 -92 -228 -162 -1128 -544 -4295
-589 -5660 -79 -432 161 -661 365 -581 518 20 38 23 67 10 91 -25 46 -24 77 1
38 11 -16 20 -21 20 -10z m5969 -206 c-12 -17 -288 -68 -357 -67 -102 1 -136
35 -54 53 34 7 62 21 62 30 0 34 288 52 322 20 17 -16 29 -33 27 -36z m-504
-106 c6 -46 3 -53 -19 -35 -16 13 -26 14 -26 2 0 -11 -38 -21 -85 -23 -47 -2
-109 -4 -139 -5 -30 -2 -58 -14 -64 -28 -6 -16 -51 -25 -126 -25 -64 -1 -174
-10 -246 -22 -71 -12 -164 -22 -206 -22 -42 0 -72 -7 -67 -15 5 -8 -118 -17
-274 -20 -156 -3 -303 -9 -327 -15 -33 -8 -42 -3 -34 18 12 32 241 63 312 41
31 -9 40 -7 26 7 -11 11 -38 25 -60 30 -22 5 -4 5 40 0 121 -12 132 -13 240
-9 72 3 92 9 70 23 -21 13 17 19 120 18 95 -1 178 11 226 31 43 18 92 28 110
22 43 -13 223 39 183 53 -16 6 21 6 81 2 67 -6 100 -2 85 9 -16 11 11 18 73
19 93 1 99 -2 107 -56z m-3337 -121 c-10 -16 12 -20 78 -13 77 9 87 7 65 -16
-28 -28 -195 -31 -178 -3 5 8 -9 15 -32 15 -22 0 -41 -9 -41 -20 0 -11 -18
-20 -40 -20 -72 0 -42 37 45 57 117 26 119 26 103 0z m1412 -77 c0 -11 -49
-20 -110 -20 -60 0 -110 9 -110 20 0 11 50 20 110 20 61 0 110 -9 110 -20z"/>
<path d="M5325 4226 c-106 -21 -30 -35 147 -29 131 5 189 0 180 -14 -7 -12 5
-31 27 -43 33 -17 41 -15 41 10 0 18 9 27 20 20 11 -7 20 -4 20 6 0 47 -281
80 -435 50z"/>
<path d="M2760 4199 c-215 -18 -288 -47 -220 -89 24 -15 180 31 180 53 0 26
156 20 165 -7 4 -13 46 -24 92 -25 49 0 92 -13 101 -29 10 -15 27 -21 39 -14
11 7 29 -3 40 -22 11 -20 36 -36 57 -36 20 0 36 -13 36 -30 0 -16 32 -48 70
-71 39 -22 71 -51 73 -65 1 -13 3 -35 5 -48 1 -17 8 -18 24 -2 39 39 -182 297
-237 277 -14 -6 -25 3 -25 20 0 16 -18 29 -40 29 -22 0 -40 8 -40 19 0 17 -48
37 -120 49 -16 3 -106 -1 -200 -9z"/>
<path d="M5120 4164 c-49 -27 -93 -58 -97 -67 -3 -9 -15 -17 -25 -17 -42 0
-149 -142 -125 -166 16 -16 87 31 87 57 0 29 106 129 136 129 13 0 24 8 24 18
0 11 27 25 60 32 57 13 77 38 45 56 -8 5 -55 -14 -105 -42z"/>
<path d="M6409 3545 c17 -66 49 -108 72 -94 9 5 22 0 29 -11 7 -11 23 -15 36
-7 18 10 19 7 0 -13 -18 -19 -11 -35 33 -73 53 -44 101 -61 101 -36 0 22 -126
147 -140 139 -8 -5 -39 27 -68 70 -62 94 -82 102 -63 25z"/>
<path d="M3694 3527 c-26 -26 -14 -47 26 -47 22 0 38 -11 35 -25 -3 -16 18
-25 58 -25 35 0 70 -7 79 -15 8 -8 31 -15 51 -15 21 0 37 -9 37 -20 0 -11 43
-19 95 -18 80 2 87 5 45 19 -36 13 -17 16 70 11 125 -7 210 12 210 48 0 11
-18 20 -40 20 -22 0 -40 -10 -40 -22 0 -55 -563 22 -600 81 -7 12 -19 15 -26
8z"/>
<path d="M5650 3717 c-55 -8 -167 -15 -250 -17 -107 -3 -136 -9 -100 -20 l50
-16 -53 -2 c-30 -1 -57 7 -60 18 -5 12 -29 13 -67 1 -44 -13 -49 -18 -20 -21
32 -3 28 -8 -20 -30 -33 -14 -65 -23 -71 -20 -5 4 -32 -10 -60 -31 l-49 -38
76 -1 c159 0 791 80 979 125 l94 22 -74 26 c-76 26 -198 27 -375 4z"/>
<path d="M490 1818 c-186 -96 -313 -204 -384 -326 -48 -82 -33 -446 22 -540
525 -896 5042 -1179 7169 -449 607 208 783 374 783 739 0 287 -51 366 -347
538 -160 94 -170 96 -166 30 2 -37 11 -47 38 -38 19 6 35 1 35 -11 0 -39 7
-51 49 -83 43 -33 108 -63 141 -66 11 -1 23 -22 26 -47 4 -25 25 -55 47 -67
48 -25 125 -188 105 -221 -9 -14 -5 -18 9 -9 32 20 29 -19 -7 -89 -95 -184
-532 -399 -1090 -538 -137 -34 -281 -70 -320 -80 -97 -26 -519 -92 -830 -130
-2335 -285 -5286 111 -5623 755 -41 79 14 254 94 302 31 18 59 53 63 77 4 31
26 51 71 64 43 13 62 29 55 47 -6 16 0 24 14 19 24 -8 196 141 196 170 0 25
-25 18 -150 -47z"/>
</g>
</svg>
